<svg xmlns="http://www.w3.org/2000/svg" version="1.1" xmlns:xlink="http://www.w3.org/1999/xlink" xmlns:svgjs="http://svgjs.com/svgjs" width="1440" height="560" preserveAspectRatio="none" viewBox="0 0 1440 560"><g mask="url(&quot;#SvgjsMask1001&quot;)" fill="none"><rect width="1440" height="560" x="0" y="0" fill="rgba(255, 255, 255, 1)"></rect><path d="M1464 560L0 560 L0 316.54Q76.11 272.65, 120 348.77Q122.67 279.44, 192 282.1Q258.22 228.32, 312 294.54Q372.51 283.05, 384 343.56Q410.5 298.06, 456 324.56Q481.67 278.23, 528 303.89Q608.44 264.33, 648 344.78Q698.37 275.15, 768 325.52Q791.12 276.64, 840 299.76Q866.64 254.4, 912 281.05Q967.11 264.15, 984 319.26Q1054.88 270.14, 1104 341.03Q1135.8 252.83, 1224 284.63Q1293.6 234.23, 1344 303.83Q1419.2 259.03, 1464 334.23z" fill="#182f5d"></path><path d="M1464 560L0 560 L0 425.62Q15.02 368.64, 72 383.66Q123.49 315.15, 192 366.65Q265.74 320.39, 312 394.13Q361.86 371.99, 384 421.85Q391.73 357.58, 456 365.31Q484.46 321.77, 528 350.24Q588.39 338.63, 600 399.02Q622.06 349.08, 672 371.15Q700.88 328.03, 744 356.92Q840.88 333.8, 864 430.68Q912.62 359.3, 984 407.92Q994.99 346.91, 1056 357.9Q1111.5 341.4, 1128 396.91Q1177.5 326.41, 1248 375.91Q1306.36 362.27, 1320 420.63Q1346.57 375.2, 1392 401.77Q1409.62 347.38, 1464 365z" fill="#25467d"></path><path d="M1536 560L0 560 L0 438.32Q72.27 390.59, 120 462.85Q182.62 453.47, 192 516.09Q231.54 435.63, 312 475.17Q336.7 427.87, 384 452.57Q442.71 439.28, 456 498Q461.88 431.88, 528 437.75Q580.53 370.28, 648 422.82Q741.03 395.85, 768 488.87Q797.13 446, 840 475.12Q859 422.12, 912 441.12Q978.73 387.85, 1032 454.58Q1093.93 444.51, 1104 506.44Q1150.79 433.23, 1224 480.02Q1239.38 423.4, 1296 438.78Q1361.95 384.74, 1416 450.69Q1506.84 421.52, 1536 512.36z" fill="#356cb1"></path><path d="M1488 560L0 560 L0 496.88Q48.65 473.53, 72 522.18Q146.78 476.96, 192 551.75Q221.72 509.47, 264 539.19Q337.69 492.88, 384 566.57Q387.19 497.76, 456 500.95Q521.85 446.8, 576 512.65Q664.68 481.33, 696 570Q711.06 513.06, 768 528.11Q809.37 449.48, 888 490.84Q934.95 465.79, 960 512.74Q1045.89 478.63, 1080 564.53Q1126.86 539.38, 1152 586.24Q1165.52 527.76, 1224 541.28Q1293.86 491.14, 1344 561Q1350.44 495.44, 1416 501.89Q1452.67 466.56, 1488 503.23z" fill="white"></path></g><defs><mask id="SvgjsMask1001"><rect width="1440" height="560" fill="#ffffff"></rect></mask></defs></svg>