<svg xmlns="http://www.w3.org/2000/svg" version="1.1" xmlns:xlink="http://www.w3.org/1999/xlink" xmlns:svgjs="http://svgjs.com/svgjs" width="1440" height="800" preserveAspectRatio="none" viewBox="0 0 1440 800"><g mask="url(&quot;#SvgjsMask1017&quot;)" fill="none"><rect width="1440" height="800" x="0" y="0" fill="rgba(21, 67, 96, 1)"></rect><path d="M1536 800L0 800 L0 474.13Q39.95 394.07, 120 434.02Q209.56 403.58, 240 493.15Q284.98 418.13, 360 463.1Q404.79 435.89, 432 480.68Q478.24 454.92, 504 501.16Q504.3 429.46, 576 429.76Q599.41 381.17, 648 404.58Q702.72 387.3, 720 442.02Q792.01 442.03, 792 514.05Q864.65 466.7, 912 539.35Q913.41 468.76, 984 470.17Q998.52 412.69, 1056 427.21Q1127.71 378.92, 1176 450.64Q1217.1 371.74, 1296 412.83Q1380.1 376.93, 1416 461.03Q1464.43 389.46, 1536 437.89z" fill="#182f5d"></path><path d="M1488 800L0 800 L0 551.87Q50.33 530.2, 72 580.53Q133.63 570.16, 144 631.79Q170.21 586, 216 612.2Q201.7 525.9, 288 511.6Q396.89 500.49, 408 609.38Q439.79 521.17, 528 552.97Q599.39 504.37, 648 575.76Q694.45 550.21, 720 596.66Q789.85 546.51, 840 616.36Q860.86 565.22, 912 586.08Q914.07 516.15, 984 518.22Q1036.1 450.32, 1104 502.42Q1155.82 482.24, 1176 534.06Q1243.31 529.37, 1248 596.67Q1287.67 516.34, 1368 556.01Q1406.92 474.93, 1488 513.86z" fill="#25467d"></path><path d="M1512 800L0 800 L0 730.11Q-15.46 642.65, 72 627.2Q122.94 558.14, 192 609.08Q298.08 595.16, 312 701.24Q357.63 626.88, 432 672.51Q498.34 618.85, 552 685.18Q636.45 649.63, 672 734.08Q691.95 682.03, 744 701.98Q779.08 617.06, 864 652.13Q917.98 586.11, 984 640.08Q1003.25 587.33, 1056 606.58Q1141.03 571.61, 1176 656.64Q1226.07 586.71, 1296 636.78Q1350.43 619.21, 1368 673.64Q1375.89 609.53, 1440 617.42Q1481.67 587.09, 1512 628.76z" fill="#356cb1"></path><path d="M1464 800L0 800 L0 736.73Q69.71 686.44, 120 756.16Q216.74 732.89, 240 829.63Q255.96 725.59, 360 741.54Q425 686.54, 480 751.55Q491.16 690.71, 552 701.88Q619.04 648.92, 672 715.96Q784.96 708.92, 792 821.88Q807.15 765.03, 864 780.18Q936.18 732.36, 984 804.54Q996.01 696.55, 1104 708.56Q1163.9 696.46, 1176 756.36Q1224 732.36, 1248 780.36Q1302.08 762.44, 1320 816.53Q1326.82 751.35, 1392 758.16Q1407.93 702.09, 1464 718.02z" fill="white"></path></g><defs><mask id="SvgjsMask1017"><rect width="1440" height="800" fill="#ffffff"></rect></mask></defs></svg>