<svg xmlns="http://www.w3.org/2000/svg" version="1.1" xmlns:xlink="http://www.w3.org/1999/xlink" xmlns:svgjs="http://svgjs.com/svgjs" width="1440" height="560" preserveAspectRatio="none" viewBox="0 0 1440 560"><g mask="url(&quot;#SvgjsMask1001&quot;)" fill="none"><rect width="1440" height="560" x="0" y="0" fill="rgba(21, 67, 96, 1)"></rect><path d="M0,324.304C59.544,310.274,116.925,295.067,169.045,263.039C222.058,230.462,277.402,195.087,302.751,138.262C328.017,81.623,315.526,17.287,306.009,-43.997C296.589,-104.657,274.641,-159.556,247.917,-214.821C212.247,-288.585,200.211,-391.926,123.65,-421.113C48.19,-449.88,-28.777,-381.782,-102.276,-348.321C-165.809,-319.397,-230.782,-292.337,-276.009,-239.163C-320.989,-186.279,-343.1,-119.436,-355.111,-51.057C-367.422,19.033,-366.711,89.893,-345.751,157.899C-322.649,232.856,-300.05,322.897,-229.374,356.913C-158.349,391.096,-76.722,342.381,0,324.304" fill="#11364d"></path><path d="M1440 912.894C1510.469 914.5699999999999 1587.699 919.8820000000001 1644.175 877.702 1699.845 836.124 1703.821 756.866 1733.209 693.904 1762.906 630.281 1822.222 575.751 1817.8229999999999 505.677 1813.357 434.528 1758.4560000000001 378.34000000000003 1710.112 325.947 1663.001 274.889 1608.598 231.90300000000002 1543.307 208.16699999999997 1475.049 183.353 1398.549 161.91699999999997 1330.785 188.048 1264.246 213.70600000000002 1234.998 288.101 1190.825 344.08799999999997 1148.931 397.18600000000004 1090.2269999999999 441.419 1078.345 508.002 1066.334 575.313 1098.4850000000001 640.798 1126.769 703.048 1155.101 765.404 1185.0720000000001 830.014 1241.974 868.135 1299.359 906.5799999999999 1370.9470000000001 911.251 1440 912.894" fill="#195073"></path></g><defs><mask id="SvgjsMask1001"><rect width="1440" height="560" fill="#ffffff"></rect></mask></defs></svg>