<svg xmlns="http://www.w3.org/2000/svg" version="1.1" xmlns:xlink="http://www.w3.org/1999/xlink" xmlns:svgjs="http://svgjs.com/svgjs" width="1440" height="560" preserveAspectRatio="none" viewBox="0 0 1440 560"><g mask="url(&quot;#SvgjsMask1010&quot;)" fill="none"><rect width="1440" height="560" x="0" y="0" fill="url(#SvgjsLinearGradient1011)"></rect><circle r="7.65" cx="1331.49" cy="50.22" filter="url(#SvgjsFilter1012)" fill="rgba(51, 121, 194, 0.58)"></circle><circle r="7.445" cx="1130.0549999999998" cy="205.905" filter="url(#SvgjsFilter1012)" fill="rgba(51, 121, 194, 0.58)"></circle><circle r="8.085" cx="441.135" cy="533.885" filter="url(#SvgjsFilter1012)" fill="rgba(51, 121, 194, 0.58)"></circle><circle r="7.56" cx="1267.86" cy="76.36" filter="url(#SvgjsFilter1012)" fill="rgba(51, 121, 194, 0.58)"></circle><circle r="4.985" cx="1307.5349999999999" cy="17.635" filter="url(#SvgjsFilter1012)" fill="rgba(51, 121, 194, 0.58)"></circle><circle r="7.44" cx="685.6700000000001" cy="370.76" filter="url(#SvgjsFilter1012)" fill="rgba(51, 121, 194, 0.58)"></circle><circle r="5.455" cx="533.215" cy="223.715" filter="url(#SvgjsFilter1012)" fill="rgba(51, 121, 194, 0.58)"></circle><circle r="5.945" cx="870.9050000000001" cy="39.505" filter="url(#SvgjsFilter1012)" fill="rgba(51, 121, 194, 0.58)"></circle><circle r="5.725" cx="1365.155" cy="170.11499999999998" filter="url(#SvgjsFilter1012)" fill="rgba(51, 121, 194, 0.58)"></circle><circle r="7.19" cx="288.08" cy="62.39" filter="url(#SvgjsFilter1012)" fill="rgba(51, 121, 194, 0.58)"></circle><circle r="8.135" cx="1440.455" cy="40.975" filter="url(#SvgjsFilter1012)" fill="rgba(51, 121, 194, 0.58)"></circle><circle r="7.525" cx="556.0749999999999" cy="359.09499999999997" filter="url(#SvgjsFilter1012)" fill="rgba(51, 121, 194, 0.58)"></circle><circle r="4.935" cx="89.405" cy="31.955" filter="url(#SvgjsFilter1012)" fill="rgba(51, 121, 194, 0.58)"></circle><circle r="5.75" cx="454.97" cy="55.56" filter="url(#SvgjsFilter1012)" fill="rgba(51, 121, 194, 0.58)"></circle><circle r="6.29" cx="596.0799999999999" cy="349.33000000000004" filter="url(#SvgjsFilter1012)" fill="rgba(51, 121, 194, 0.58)"></circle><circle r="5.315" cx="199.625" cy="460.145" filter="url(#SvgjsFilter1012)" fill="rgba(51, 121, 194, 0.58)"></circle><circle r="5.75" cx="257.24" cy="244.76" filter="url(#SvgjsFilter1012)" fill="rgba(51, 121, 194, 0.58)"></circle><circle r="5.555" cx="68.985" cy="560.685" filter="url(#SvgjsFilter1012)" fill="rgba(51, 121, 194, 0.58)"></circle><circle r="7.43" cx="389.85" cy="561.02" filter="url(#SvgjsFilter1012)" fill="rgba(51, 121, 194, 0.58)"></circle><circle r="9.255" cx="1363.575" cy="38.585" filter="url(#SvgjsFilter1012)" fill="rgba(51, 121, 194, 0.58)"></circle><path d="M942.9 465L950.6 474.9 942.3 476.3C941.4 476.4 940.6 477.4 940.5 478.6 941 479.7 942 480.5 942.8 480.4L953.8 478.7 961 487.9 938.6 491.2C937.2 491.5 936.4 492.5 936.8 493.5 936.8 494.8 937.8 495.6 939.2 495.3L963.8 491.6 970.5 499.8 961.6 522.5 952.4 524.1 936.1 503.1C935.7 503 935.3 502.8 935 502.7 934.6 502.5 933.7 502.6 933.2 502.8 932 503.7 931.9 504.9 932.9 505.7L947.8 524.9 936.4 526.4 928.5 516.9C928.7 516.5 928.3 516.4 927.9 516.2 927.2 515.9 926.3 516 925.6 516.6 925 517.2 924.9 518.5 925.4 519.5L931.8 527.2 917.6 529.4C916.7 529.5 915.9 530.4 915.9 531.7 916.3 532.7 917.3 533.5 918.2 533.5L931.5 531.4 928.4 539.2C927.9 540.3 928.8 541.5 929.5 541.8 930.6 542.2 932 541.9 932.5 540.8L936.4 530.7 947.8 529.2 939.6 550C939.2 551.1 939.6 552.2 940.7 552.6 941.8 553.1 942.9 552.6 943.3 551.5L952.4 528.4 962.1 526.6 977.3 545.9 973.9 554.5 948.8 558.4C947.5 558.3 946.6 559.6 947 560.7 947 561.9 948.1 562.4 949.3 562.4L972.2 558.9 968 569.7 956.6 571.3C955.7 571.4 954.8 572.7 954.8 573.6S956.3 575.5 957.5 575.5L966.2 574.2 961.1 587.2C960.7 588.4 961.5 589.5 962.6 590 963.3 590.3 964.7 590 965.2 588.9L970.3 575.8 976.1 582.8C976.7 583.5 977.9 583.9 979 583.1 979.7 582.5 979.9 580.9 979.3 580.2L972.1 571.3 976.3 560.6 990.7 578.7C991.6 579.5 992.8 579.9 993.9 579.1 994.6 578.5 994.8 576.8 994.2 576.2L978 556.1 981.4 547.5 1005.7 543.7 1011.6 551.6 1002.5 574.7C1002.1 575.8 1002.5 576.9 1003.7 577.3 1004.8 577.7 1006.2 577.4 1006.6 576.3L1014.8 555.5 1022.1 564.3 1018.1 574.4C1017.7 575.5 1018.1 576.5 1019.3 577 1020.4 577.4 1021.4 577 1021.9 575.8L1024.9 568 1033.2 578.6C1033.8 579.3 1035.5 579.5 1036.1 578.9 1036.9 577.9 1037.4 576.8 1036.4 576L1027.9 564.9 1037.4 563.5C1038.5 563 1039.3 562.1 1039.2 561.2 1039.1 560.3 1038.5 559.6 1037.8 559.3 1037.8 559.3 1037.4 559.2 1036.9 559.4L1024.6 561 1017.4 552.2 1041.3 548.2C1042.5 548.3 1043.4 547.3 1043 545.9 1042.8 545.4 1042.6 544.9 1041.8 544.6 1041.5 544.4 1041.1 544.3 1040.7 544.2L1014.5 548.5 1008.8 541.1 1017.8 518.4 1028.2 516.9 1043.8 536.3C1044.6 537.5 1045.9 537.6 1046.7 536.6 1047.7 536.2 1047.8 534.9 1047 533.7L1032.8 516.1 1044.3 514.2 1051.2 522.9C1051.8 523.6 1053.1 523.6 1054.1 523.2 1054.9 522.2 1055.4 521.1 1054.4 520.3L1049.3 513.6 1061.7 511.6C1062.9 511.6 1063.4 510.5 1063.4 509.2 1063.2 508.7 1062.6 508.1 1061.9 507.8 1061.9 507.8 1061.5 507.6 1061.1 507.5L1047.9 509.6 1051.5 500.3C1051.8 499.5 1051.5 498.1 1050.4 497.7 1049.3 497.2 1048.1 498 1047.8 498.8L1043.3 510.3 1031.8 512.3 1040.7 489.6C1041.1 488.4 1040.3 487.3 1039.2 486.8S1037 486.8 1036.6 487.9L1026.8 512.9 1017.2 514.3 1002 495 1005.8 485.3 1031.3 481.6C1032.4 481.1 1033.2 480.2 1033.2 478.9 1033 478.4 1032.4 477.7 1031.7 477.4 1031.3 477.3 1030.9 477.1 1030.4 477.4L1007.6 480.9 1011.8 470.1 1023.3 468.1C1024.2 468.1 1025 467.1 1025.1 465.8 1024.6 464.8 1023.6 464 1022.7 464L1013.5 465.6 1018.2 453.7C1018.5 452.9 1017.8 451.4 1017.1 451.1 1016 450.6 1014.4 451.3 1014.1 452.1L1009.4 464 1004.1 456.7C1003.7 456.6 1003.4 456.5 1003 456.3 1002.3 456 1001.4 456.1 1000.9 456.3 1000 457.3 1000 458.6 1000.4 459.6L1007.7 468.5 1003.5 479.3 989.1 461.2C988.2 460 987 459.9 986.3 460.5 985.1 461.3 985.1 462.6 985.5 463.6L1001.7 483.7 997.9 493.4 973.6 497.2 967.6 489.7 977.4 464.7C977.8 463.6 977.3 462.6 976.2 462.1 975.1 461.7 974.1 462.1 973.6 463.3L964.7 486 957.6 476.7 962.1 465.2C962.4 464.5 961.7 462.9 960.6 462.5 959.5 462 958.3 462.8 958 463.6L954.4 472.9 946.1 462.3C945.7 462.2 945.7 462.2 945.3 462 944.6 461.7 943.7 461.8 943.2 462.1 942.4 463 942.3 464.3 942.9 465ZM996.2 497.9L998.8 497.6 1000.2 499.5 1012.6 515.1 1014 516.9 1013.2 519.2 1006 537.4 1005.1 539.6 1002.8 540 983.2 543 980.9 543.4 979.1 541.4 967.1 526 965.3 524 966.2 521.8 973.3 503.5 974.2 501.3 976.9 501 996.2 497.9Z" fill="rgba(51, 121, 194, 0.58)"></path><path d="M692.8 193L675.9 188.2 684 179.6C685 178.8 685.1 177.1 684.1 175.6 682.8 174.8 681 174.7 680 175.5L669 186.5 653.4 181.9 675.9 159.8C677.2 158.3 677.4 156.5 676 155.7 675 154.2 673.3 154.1 671.9 155.6L647.1 180.1 632.8 176.4 624.1 143.3 633.2 134 668.9 144.2C669.5 144.1 670 144 670.5 143.8 671.1 143.7 672 142.9 672.4 142.2 673.1 140.3 672.1 138.8 670.3 138.7L637.8 129.3 649.3 118.1 666.1 122.4C666.2 123 666.7 122.8 667.3 122.7 668.4 122.4 669.3 121.6 669.6 120.3 669.8 119.1 668.9 117.6 667.5 116.8L653.9 113.5 668.1 99.3C669 98.5 669.1 96.7 668.2 95.2 666.8 94.4 665 94.3 664.1 95.1L650.8 108.5 647.8 97.1C647.4 95.5 645.5 94.8 644.4 95.1 642.8 95.5 641.4 97.1 641.9 98.7L645.7 113.3 634.2 124.4 626.2 94.1C625.7 92.5 624.4 91.7 622.8 92.1 621.1 92.6 620.3 93.9 620.8 95.6L629.6 129.1 620.1 139.2 587 129.9 583.7 117.5 608.9 92.3C610.4 91.3 610.4 89 609 88.2 608 86.7 606.4 87.2 604.9 88.1L582 111 577.8 95.3 589.4 84.1C590.3 83.3 590.3 81 589.5 80.1S586.3 79.1 584.8 80.1L576.1 88.8 571.1 69.8C570.7 68.2 568.8 67.5 567.2 68 566.1 68.3 564.7 69.8 565.2 71.4L570.2 90.3 557.8 87.2C556.5 87 554.9 87.4 554.3 89.3 554 90.6 555.1 92.6 556.3 92.8L571.9 96.8 576 112.6 544.8 104C543 103.9 541.4 104.3 540.8 106.2 540.5 107.4 541.6 109.5 542.8 109.7L577.7 119 581 131.5 556.7 155.9 543.5 151.8 534.7 118.2C534.2 116.6 532.9 115.8 531.2 116.2 529.6 116.7 528.3 118.2 528.7 119.8L536.7 150.1 521.2 146.1 517.3 131.5C516.9 129.9 515.5 129.1 513.9 129.5 512.3 129.9 511.5 131.3 511.9 132.9L514.9 144.3 496.8 139.2C495.5 139 493.5 140.1 493.3 141.3 493.1 143.1 493.6 144.7 495.3 144.8L514.1 150.3 504.5 159.8C503.7 161.1 503.6 162.9 504.4 163.8 505.2 164.8 506.5 165 507.5 164.8 507.5 164.8 508.1 164.6 508.5 163.9L521 152 536.5 156 512.8 180.2C511.3 181.1 511.2 182.9 512.7 184.3 513.4 184.7 514 185.1 515.1 184.8 515.7 184.6 516.2 184.5 516.8 184.3L542.8 157.8 555.3 161.4 564 194.5 553.4 204.8 519.7 195.7C517.8 195.1 516.4 196 516.2 197.8 515.4 199.2 516.4 200.6 518.3 201.3L548.9 209.5 537.5 221.2 522.5 217C521.2 216.7 519.8 217.7 519 219.1 518.8 220.9 519.3 222.5 521 222.6L532.4 226 520 238.5C518.5 239.5 519 241.1 519.9 242.6 520.6 243 521.8 243.2 522.9 242.9 522.9 242.9 523.5 242.8 524 242.7L537.3 229.3 540.9 242.8C541.1 243.9 542.6 245.3 544.3 244.8 545.9 244.4 546.6 242.5 546.3 241.4L541.8 224.6 553.2 212.9 561.9 246C562.4 247.6 564.3 248.3 565.9 247.8S568.3 246 567.9 244.4L558.3 208.1 568 198.6 601.1 207.9 604.8 221.9 579.1 247.3C578.3 248.6 578.2 250.4 579.1 251.9 579.8 252.3 581 252.5 582.1 252.2 582.7 252.1 583.2 252 583.6 251.3L606.5 228.4 610.7 244.1 599.3 255.8C598.3 256.7 598.2 258.4 599.2 259.9 600.6 260.7 602.3 260.8 603.3 260L612.4 250.6 617 268C617.2 269.1 619.3 270.2 620.4 270 622 269.5 623.2 267.5 622.9 266.4L618.4 249.1 630.4 252.9C630.9 252.7 631.4 252.6 632 252.4 633.1 252.1 634 251.3 634.4 250.6 634.5 248.9 633.5 247.4 632.2 246.6L616.6 242.6 612.5 226.9 643.7 235.4C645.6 236.1 647.1 235.1 647.4 233.9 648 232 647.1 230.5 645.7 229.7L610.8 220.4 607.1 206.3 631.4 181.9 644.4 185.4 654 221.7C654.4 223.3 655.8 224.1 657.4 223.7 659.1 223.3 659.8 221.9 659.4 220.3L650.7 187.3 666.4 191.8 670.8 208.6C671.1 209.7 673.2 210.9 674.8 210.5 676.4 210 677.1 208.1 676.8 207L673.2 193.5 691.3 198.6C691.9 198.4 691.9 198.4 692.4 198.3 693.5 198 694.4 197.2 694.8 196.5 695 194.7 694 193.2 692.8 193ZM605.4 199.8L602.6 202.3 599.4 201.4 572.6 194 569.4 193 568.6 189.8 561.6 163.3 560.7 160 563 157.7 582.7 138 585 135.7 588.7 136.4 615 144 618.7 144.7 619.5 148 626.5 174.5 627.4 177.8 624.5 180.3 605.4 199.8Z" fill="rgba(51, 121, 194, 0.58)"></path><path d="M94.7 316.4L93.2 306.5 99.5 308.7C100.2 309 101.1 308.7 101.7 307.8 101.8 306.9 101.4 305.9 100.7 305.7L92.4 302.6 91 293.4 107.9 299.8C109 300.1 109.9 299.7 110 298.8 110.6 298 110.2 297 109.1 296.7L90.5 289.7 89 281.3 104.1 268.9 111.1 271.4 114.3 292.4C114.5 292.7 114.7 292.9 114.9 293.2 115.1 293.4 115.8 293.7 116.2 293.7 117.4 293.6 117.9 292.8 117.5 291.8L114.6 272.7 123.1 276 124.9 285.7C124.7 285.9 124.9 286.2 125.1 286.4 125.5 286.9 126.2 287.2 126.9 287 127.6 286.9 128.1 286 128.2 285.1L126.7 277.2 137.4 281.2C138.1 281.5 139 281.2 139.6 280.3 139.6 279.4 139.3 278.5 138.6 278.2L128.5 274.5 133.7 270.2C134.4 269.6 134.3 268.4 133.9 267.9 133.3 267.2 132.2 266.9 131.5 267.5L124.8 273 116.3 269.6 130.1 258.3C130.8 257.6 130.9 256.7 130.3 256 129.7 255.3 128.8 255.2 128.1 255.8L112.7 268.4 105.3 265.9 102.1 246.5 107.8 241.8 126.9 248.9C127.8 249.4 129 248.8 129 247.9 129.6 247.1 129 246.3 128.1 245.8L110.8 239.3 117.9 233.4 126.5 236.8C127.1 237.1 128.3 236.5 128.6 235.8S128.3 234 127.5 233.4L120.9 231 129.5 223.9C130.3 223.3 130.2 222.1 129.6 221.4 129.1 220.9 128 220.5 127.3 221.2L118.7 228.3 117.3 221.1C117.1 220.4 116.5 219.7 115.4 219.8 114.7 219.9 113.9 221 114.1 221.7L115.7 230.7 108.5 236.6 105.5 218.4C105.2 217.4 104.5 216.7 103.4 216.8 102.7 217 101.9 218 102.1 218.7L105.6 239.1 99.9 243.7 81.4 237 80.4 229.1 95.7 216.5C96.4 215.9 96.5 215 95.9 214.3 95.3 213.5 94.2 213.2 93.5 213.8L79.6 225.2 78 216.2 84.7 210.7C85.4 210.1 85.5 209.2 84.9 208.4 84.3 207.7 83.4 207.6 82.6 208.2L77.4 212.5 75.7 201.9C75.6 201.2 74.5 200.4 73.8 200.5 72.9 200.9 72.1 201.5 72.5 202.5L74.2 213.5 66.9 210.8C66 210.7 65.1 211.1 64.8 211.7 64.5 212.4 64.7 213.1 65.1 213.6 65.1 213.6 65.3 213.8 65.7 213.9L74.9 217.5 76.5 226.5 58.3 220C57.5 219.4 56.5 219.8 56.2 220.9 56.1 221.3 56.1 221.8 56.5 222.3 56.7 222.5 56.9 222.8 57.1 223L77.1 230.2 78.2 237.6 63.1 250 55.3 246.9 51.9 227.3C51.8 226.1 50.9 225.6 50 226 49.1 225.9 48.6 226.7 48.7 227.9L51.7 245.7 42.9 242.6 41.5 233.8C41.4 233.1 40.5 232.6 39.6 232.5 38.7 232.8 37.9 233.4 38.3 234.4L39.2 241.1 29.8 237.7C28.9 237.1 28.2 237.7 27.6 238.6 27.6 239 27.8 239.7 28.2 240.2 28.2 240.2 28.4 240.5 28.6 240.7L38.7 244.4 32.5 249.5C32 249.9 31.7 251 32.3 251.8 32.9 252.5 34 252.4 34.5 252L42.2 245.7 51 248.8 35.9 261.2C35.2 261.8 35.3 263 35.9 263.7S37.4 264.5 38.2 263.9L54.7 250.3 61.9 253 65.1 272.4 58.6 277.7 39.3 270.4C38.4 270.3 37.5 270.7 37 271.5 36.9 272 37.1 272.7 37.5 273.2 37.7 273.4 37.9 273.7 38.3 273.7L55.7 280.2 48.5 286.1 39.7 283C39.1 282.7 38.1 283 37.6 283.9 37.5 284.8 37.9 285.7 38.5 286L45.6 288.5 37.7 295C37.2 295.4 37 296.8 37.4 297.3 38 298 39.4 298.1 39.9 297.7L47.8 291.2 48.7 298.4C48.9 298.6 49.1 298.9 49.3 299.1 49.7 299.6 50.4 299.9 50.8 299.9 51.8 299.6 52.3 298.7 52.4 297.8L50.8 288.8 57.9 282.9 60.9 301.1C61.1 302.3 61.9 302.8 62.6 302.7 63.8 302.5 64.3 301.7 64.4 300.8L60.9 280.4 67.3 275.2 85.7 281.9 87.1 289.6 70.5 303.2C69.8 303.8 69.7 304.7 70.3 305.4 70.9 306.2 71.8 306.3 72.5 305.7L87.6 293.3 89 302.5 81.3 308.8C80.8 309.2 80.7 310.5 81.3 311.3 81.9 312 83.1 311.9 83.6 311.5L89.8 306.4 91.5 317C91.7 317.3 91.7 317.3 91.9 317.5 92.3 318 92.9 318.3 93.4 318.4 94.3 318 94.9 317.1 94.7 316.4ZM70.3 272.7L68.3 271.8 68 270 65.5 254.3 65.2 252.4 66.7 251.2 78.8 241.3 80.2 240 82 240.7 96.9 246.2 98.7 246.8 99.2 248.9 101.5 264.4 102 266.5 100.5 267.7 88.4 277.6 87 278.9 85 278 70.3 272.7Z" fill="rgba(51, 121, 194, 0.58)"></path><path d="M1396 295.3L1395.6 315.4 1383.8 308.8C1382.6 308 1380.6 308.4 1379.3 309.9 1378.8 311.7 1379.2 313.6 1380.3 314.4L1395.7 323.4 1395.2 342 1364.2 323.6C1362.1 322.5 1360.1 322.9 1359.7 324.7 1358.3 326.2 1358.7 328.2 1360.8 329.2L1395 349.5 1395 366.4 1361.1 385.6 1348.1 378.3 1349.1 335.8C1348.7 335.3 1348.4 334.7 1348.1 334.1 1347.8 333.6 1346.6 332.8 1345.7 332.5 1343.4 332.4 1342.1 333.9 1342.5 335.9L1341.6 374.6 1325.9 365.1 1325.8 345.3C1326.3 345 1326 344.4 1325.7 343.9 1325.1 342.8 1323.9 342 1322.4 342.1 1321 342.1 1319.7 343.6 1319.2 345.4L1319.4 361.4 1299.6 349.8C1298.4 349 1296.4 349.4 1295.1 350.9 1294.6 352.6 1295 354.6 1296.2 355.4L1314.8 366.2 1303.1 372.8C1301.4 373.8 1301.3 376.1 1301.9 377.2 1302.8 378.9 1304.9 379.9 1306.6 379L1321.6 370.5 1337.3 380 1306.1 397.6C1304.4 398.6 1303.9 400.3 1304.9 402 1305.8 403.7 1307.6 404.1 1309.2 403.2L1343.8 383.7 1357.6 391.3 1357.1 430.6 1344.3 437.8 1309.1 417.3C1307.6 415.9 1305.1 416.6 1304.6 418.3 1303.2 419.8 1304.2 421.5 1305.7 422.9L1337.6 441.6 1321.4 450.7 1305.7 441.2C1304.6 440.4 1302 441.1 1301.2 442.3S1301.1 446 1302.6 447.4L1314.7 454.5 1295.2 465.5C1293.6 466.5 1293.4 468.8 1294.3 470.5 1295 471.6 1297 472.6 1298.7 471.7L1318.2 460.6 1318.4 475.2C1318.4 476.7 1319.4 478.3 1321.7 478.5 1323.1 478.4 1325 476.6 1325 475.2L1324.9 456.9 1341 447.7 1340.6 484.7C1341 486.7 1342 488.4 1344.3 488.5 1345.7 488.5 1347.6 486.6 1347.5 485.2L1347.7 443.9 1360.5 436.7 1394.5 456.4 1393.9 472.2 1359.3 491.8C1357.7 492.7 1357.2 494.5 1358.1 496.1 1359.1 497.8 1361.1 498.8 1362.8 497.9L1394 480.2 1394.1 498.6 1379 507.1C1377.4 508 1376.9 509.8 1377.8 511.5 1378.8 513.1 1380.5 513.6 1382.2 512.7L1393.9 506 1393.6 527.6C1393.6 529 1395.5 530.9 1396.9 530.8 1398.9 530.4 1400.5 529.5 1400.2 527.5L1400.7 505.1 1414 513C1415.8 513.5 1417.8 513.1 1418.6 511.9 1419.4 510.8 1419.3 509.3 1418.7 508.2 1418.7 508.2 1418.3 507.7 1417.5 507.4L1400.6 497.1 1400.5 478.8 1434.2 498C1435.7 499.3 1437.7 498.9 1438.7 496.9 1438.9 496 1439.2 495.1 1438.6 494 1438.2 493.5 1437.9 492.9 1437.6 492.3L1400.7 471.3 1401.1 456.4 1435.1 437.2 1449.6 445.9 1449.3 485.7C1449.1 488 1450.6 489.4 1452.6 489 1454.4 489.5 1455.7 488 1455.9 485.7L1456.1 449.6 1472.3 458.8 1472.1 476.5C1472.1 478 1473.6 479.3 1475.4 479.8 1477.4 479.4 1479 478.5 1478.6 476.5L1479.1 463 1496.5 473C1498 474.3 1499.7 473.4 1501 471.9 1501.3 471 1501.2 469.6 1500.6 468.5 1500.6 468.5 1500.3 467.9 1500 467.4L1481.3 456.6 1495.3 448.7C1496.4 448.1 1497.4 446 1496.5 444.3 1495.5 442.7 1493.2 442.5 1492.1 443.1L1474.9 452.9 1458.6 443.7 1492.6 424.5C1494.3 423.5 1494.4 421.2 1493.5 419.5S1490.8 417.4 1489.1 418.3L1451.8 439.5 1438.5 431.5 1439.1 392.2 1453.6 384.1 1489 405.2C1490.8 405.6 1492.8 405.3 1494.1 403.8 1494.4 402.9 1494.3 401.5 1493.7 400.3 1493.3 399.8 1493 399.2 1492.2 399L1460.2 380.3 1476.4 371.1 1492.6 380.3C1493.8 381.1 1495.8 380.7 1497.2 379.2 1497.6 377.5 1497.3 375.5 1496.1 374.7L1483.1 367.3 1500.9 357.3C1502 356.6 1502.7 354 1502.1 352.9 1501.2 351.2 1498.6 350.5 1497.4 351.1L1479.6 361.2 1480.3 346.9C1480 346.3 1479.7 345.7 1479.4 345.2 1478.7 344.1 1477.5 343.3 1476.7 343 1474.7 343.4 1473.3 344.9 1472.8 346.7L1472.9 365 1456.8 374.1 1457.2 337.2C1457.3 334.8 1455.8 333.5 1454.4 333.6 1452.1 333.4 1450.8 334.9 1450.3 336.6L1450.1 377.9 1435.6 386.1 1401.6 366.4 1401.7 350.9 1439 329.8C1440.7 328.8 1441.2 327.1 1440.2 325.4 1439.3 323.7 1437.5 323.3 1435.9 324.2L1401.9 343.4 1402.4 324.8 1419.6 315C1420.8 314.4 1421.5 311.8 1420.5 310.1 1419.6 308.4 1417.3 308.2 1416.2 308.9L1402.2 316.8 1402.6 295.2C1402.3 294.7 1402.3 294.7 1401.9 294.1 1401.3 293 1400.1 292.2 1399.3 292 1397.3 292.4 1395.9 293.9 1396 295.3ZM1428.9 389.9L1432.5 392.3 1432.4 396 1432 427.9 1431.9 431.6 1428.6 433.5 1401.3 448.9 1397.9 450.8 1394.7 449 1367.2 432.9 1364 431.1 1363.8 426.8 1364.4 395.5 1364.2 391.2 1367.6 389.3 1394.9 373.9 1398.2 372 1401.8 374.4 1428.9 389.9Z" fill="rgba(51, 121, 194, 0.58)"></path><path d="M780.7 353.2L755 383.5 744.1 384.6 730.1 364.6 734.6 354.4 772.1 341C772.5 340.7 772.5 340.7 772.9 340.5 773.7 339.9 774.2 339 773.8 337.5 773 336.3 772 335.8 770.6 336.2L737.8 348 745.1 332.4 759.4 327C759.4 327 759.8 326.8 759.8 326.8 760.6 326.2 761.1 325.3 760.7 323.8 760.5 322.7 758.9 322.1 757.5 322.6L748 325.7 753.4 314.3C753.9 313.3 753.5 311.9 752.3 310.9S749.5 311.1 748.6 312.4L743.5 323.5 740 314.3C739.6 312.8 737.9 312.2 736.5 312.6 735.7 313.2 734.8 314.4 735.2 315.9L740.6 330.2 733 346.1 721.2 313.4C720.8 311.9 719.1 311.3 718.1 311.4 716.9 312.3 716 313.5 716.4 314.9L730.2 352.2 725.2 362.7 701.4 364.7 694.8 355.2 701.4 316.1C701.6 314.7 700.8 313.6 699.5 313.3S697 313.9 696.7 315.2L691 349.7 680.8 335.2 683.4 320.5C683.6 319.1 682.8 317.9 681.2 317.3S678.7 317.9 678.4 319.2L676.9 329.7 669.5 319C668.7 317.9 667 317.9 665.8 318.7 664.6 319.5 664.4 320.9 665.2 322.1L672.6 332.7 662.6 330.9C661 330.3 659.8 331.1 659.8 332.8 659.6 334.2 660.4 335.4 661.8 335.6L676.5 338.2 686.6 352.8 652.3 346.3C650.9 346.1 649.4 347.2 649.1 348.5S649.7 351 651.1 351.3L690.5 358.3 697.1 367.7 686.7 389.6 675.5 390.4 645.2 364.7C644 363.8 642.6 364.2 641.4 365.1 640.5 366.3 640.9 367.7 641.7 368.9L668.5 391.2 651.3 392.7 639.6 382.7C638.4 381.8 637 382.2 635.8 383 635.3 384 635.3 385.7 636.5 386.6L644 393.1 631.4 394.3C630.3 394.5 629.4 395.7 629.2 397 629.6 398.5 630.8 399.4 631.9 399.2L644.5 398 637.9 406.2C637.4 407.1 637.4 408.8 638.4 409.3 639.2 410.5 640.2 410.4 641.4 409.5 641.4 409.5 641.8 409.3 641.8 409.3L651.8 397.6 669 396.2 646.7 422.9C645.7 424.1 645.5 425.4 646.7 426.3 647.9 427.2 649 427.1 649.8 426.5 650.2 426.3 650.2 426.3 650.2 426.3L676 395.3 687.2 394.6 701.2 414.6 696.4 424.4 658.7 438.5C657.7 438.6 657 440.2 657.2 441.3 657.6 442.7 659.2 443.4 660.7 442.9L693.4 431.2 686.2 446.8 671.8 452.2C670.3 452.6 669.4 453.8 670.3 455 670.7 456.4 672.3 457.1 673.4 456.9L683 453.1 677.5 464.5C677.3 465.9 677.7 467.3 679 468.2 679.6 468.4 680.7 468.2 681.5 467.7 681.9 467.4 681.9 467.4 682 466.7L687.5 455.3 691.3 464.9C691.7 466.4 693 466.6 694.1 466.4 694.5 466.2 694.5 466.2 694.9 465.9 695.7 465.3 696.2 464.4 696 463.3L690.6 448.9 697.9 433.3 709.7 466.1C710.5 467.3 711.7 468.2 712.9 467.4 713.6 467.5 713.6 467.5 713.9 467.2 714.7 466.6 715 465.3 714.8 464.2L700.8 426.6 705.6 416.8 729.8 414.5 736.2 423.6 729.2 463C728.9 464.3 730 465.9 731.4 466.1S734.3 465.3 734.5 463.9L740.3 429.5 750.2 443.6 747.9 458.7C747.6 460.1 748.4 461.2 749.8 461.5 751.1 461.7 752.3 460.9 752.5 459.5L754.3 449.5 761.7 460.1C762.3 460.9 763.9 461.6 765.1 460.7 766.3 459.9 766.6 457.9 766.1 457.1L758.6 446.5 768.7 448.3C769.3 448.4 770 448.5 770.4 448.2 771.2 447.7 771.3 447 771.4 446.3 771.6 445 770.8 443.8 769.5 443.6L754.5 440.6 744.6 426.4 779 432.9C779.6 433 780 432.7 780.8 432.2 781.2 431.9 781.6 431.6 781.7 430.9 782 429.6 780.9 428 779.5 427.8L740.5 420.5 734.2 411.5 744.2 389.8 755.5 388.4 786 414.5C787 415 788.3 415.2 789.1 414.7 789.5 414.4 789.5 414.4 789.2 414 790.4 413.2 790.3 411.4 789.1 410.5L762.4 388.2 779.9 386.5 791.6 396.5C792.6 397 793.6 396.9 794.4 396.3 794.4 396.3 794.8 396 794.8 396 796 395.2 795.9 393.5 794.7 392.6L786.6 386 799.2 384.7C799.9 384.9 800.3 384.6 800.7 384.3 801.5 383.8 802 382.8 801.7 382.4 801.6 380.7 800.4 379.8 799.1 379.6L786.5 380.8 793 373.3C793.9 372.1 793.8 370.3 792.6 369.4 791.7 368.9 789.9 369 789.4 369.9L779.4 381.6 762.3 383 784.6 356.3C785.5 355.1 785.1 353.6 784.2 352.5 783.3 351.9 781.6 352 780.7 353.2ZM727.4 370L738.1 385.3 739.8 387.7 738.6 390.2 730.9 406.8 729.3 409.6 726.5 409.8 708.3 411.4 705.5 411.6 703.9 409.2 693.1 393.9 691.5 391.5 692.6 389 700.4 372.4 701.5 369.9 704.7 369.4 722.9 367.8 725.7 367.6 727.4 370Z" fill="rgba(51, 121, 194, 0.58)"></path><path d="M369.2 550.9L344.4 541.2 335.1 519.5 358.6 522.3 374.9 543.2C374.9 543.2 375.2 543.4 375.2 543.4 375.7 543.8 376.6 543.6 377.2 543.3 378 542.7 378.1 541.6 377.3 541L363 522.7 374.4 524 380.8 532C380.8 532 381.1 532.2 381.1 532.2 381.6 532.6 382.5 532.5 383.1 532.1 383.9 531.6 384 530.4 383.2 529.8L379 524.3 387.4 525.3C388.1 525.5 389.1 524.6 389.2 523.9 389.5 523 388.5 522.2 387.8 522.1L379.4 521 385 516.8C385.8 516.2 385.9 515 385.1 514.5 384.5 513.6 383.4 513.6 382.8 514.3L374.8 520.8 363.6 519.2 381.9 504.9C382.7 504.3 382.7 503.1 382 502.6 381.4 501.7 380.2 501.7 379.7 502.5L358.7 518.8 335.2 516.1 349.6 496.8 376 492.9C376.9 492.8 377.5 492 377.3 491.1 377.2 490.2 376.4 489.7 375.5 489.8L352.2 493.2 359.1 484 369 482.5C369.9 482.4 370.4 481.6 370.3 480.7 370.2 479.8 369.4 479.3 368.5 479.4L361.8 480.4 367.1 473.2C368 472.6 367.6 471.5 366.8 471 366 470.4 365.2 470.5 364.6 471.3L359.6 478 358.6 471.2C358.5 470.3 357.7 469.8 356.8 469.9S355.4 470.8 355.5 471.7L356.9 481.6 350.1 490.8 346.6 467.5C346.5 466.6 345.7 466 344.8 466.2 344 466.3 343.4 467.1 343.5 468L347.4 494.4 333.3 513.4 323.9 491.7 333.4 467.6C333.7 466.7 333.1 465.8 332.4 465.3 331.4 464.9 330.6 465.5 330 466.3L321.5 487.9 317 477.4 320.9 467.9C321.2 466.9 320.6 466.1 319.8 465.5 318.9 465.2 318 465.8 317.6 466.3L315.2 472.8 311.8 465.1C311.4 464.4 310.4 463.7 309.6 464.3 308.7 464.8 308.2 465.6 308.8 466.4L312.2 474.2 305.6 471.7C304.7 471.4 303.8 472 303.5 472.5 303.3 473.2 303.5 474.1 304 474.5 304 474.5 304.2 474.7 304.2 474.7L313.7 478.5 318.2 489.1 296.6 480.6C295.7 480.3 294.9 480.8 294.5 481.3 294.3 482 294.5 482.9 295 483.3 295 483.3 295.2 483.5 295.2 483.5L320 493.2 329.4 514.9 305.9 512.1 289.5 491.2C288.9 490.4 287.8 490.3 287.2 491.1 286.4 491.7 286.3 492.8 287.1 493.4L301.4 511.7 290 510.4 283.6 502.4C283 501.5 281.9 501.5 281.3 502.3 280.5 502.8 280.4 504 281.2 504.6L285.4 510.1 277 509.1C276.3 508.9 275.3 509.8 275.2 510.5 275.1 511.2 275.4 511.8 275.9 512.2 276.2 512.4 276.4 512.6 276.9 512.5L285.3 513.6 279.7 517.8C278.9 518.4 278.8 519.5 279.6 520.1 279.6 520.1 279.8 520.3 279.8 520.3 280.4 520.7 281.2 520.6 281.9 520.2L289.9 513.8 301.3 515.1 283 529.5C282.2 530 282.1 531.2 282.9 531.8 282.9 531.8 283.1 531.9 283.1 531.9 283.7 532.3 284.6 532.2 285.2 531.9L306.1 515.5 329.6 518.3 315.5 537.3 289.1 541.1C288.2 541.3 287.6 542 287.7 542.9 287.9 543.8 288.6 544.4 289.5 544.3L312.6 541.1 305.7 550.4 295.9 551.8C295 551.9 294.4 552.7 294.6 553.6S295.5 555.1 296.4 554.9L303.1 554 298.1 560.6C297.5 561.4 297.7 562.3 298.4 562.9 299.2 563.4 300.1 563.3 300.7 562.5L305.6 555.9 306.6 562.6C306.7 563 306.8 563.5 307.3 563.9S308.2 564.2 308.7 564.1C309.6 564 310.1 563.2 310 562.3L308.6 552.5 315.4 543.2 318.9 566.5C318.9 566.9 319 567.4 319.5 567.8 319.8 568 320.5 568.1 320.9 568 321.8 567.9 322.4 567.1 322.3 566.2L318.4 539.8 332.5 520.8 341.9 542.5 332.2 567.3C332.1 568 332.2 568.9 332.8 569.3 332.8 569.3 333 569.5 333 569.5 334 569.8 334.8 569.2 335.2 568.7L343.7 547.1 348.2 557.6 344.3 567.1C344.2 567.8 344.3 568.7 344.9 569.1 344.9 569.1 345.1 569.3 345.1 569.3 346.1 569.6 346.9 569 347.3 568.5L349.8 562 353.2 569.7C353.4 569.9 353.5 570.3 353.8 570.5 354.3 570.9 355 571 355.6 570.7 356.4 570.1 357 569.4 356.4 568.5L353 560.8 359.6 563.3C360.5 563.6 361.3 563 361.7 562.5 362 561.5 361.5 560.7 361 560.3L351.5 556.5 346.9 545.9 368.5 554.4C369.5 554.7 370.3 554.1 370.7 553.6 370.5 552.3 370.1 551.2 369.2 550.9Z" fill="rgba(51, 121, 194, 0.58)"></path><path d="M830.9 147.9L805.6 139.8 795 118.6 818.6 120 836.2 139.9C836.2 139.9 836.4 140.1 836.4 140.1 837 140.4 837.9 140.2 838.5 139.9 839.3 139.2 839.3 138.1 838.5 137.6L823.1 120.2 834.5 120.8 841.4 128.4C841.4 128.4 841.7 128.6 841.7 128.6 842.2 128.9 843.1 128.7 843.7 128.4 844.5 127.7 844.5 126.6 843.7 126.1L839.1 120.8 847.6 121.3C848.3 121.4 849.2 120.5 849.3 119.8 849.6 118.8 848.5 118.1 847.8 118L839.4 117.5 844.7 112.9C845.4 112.3 845.4 111.1 844.6 110.6 844 109.8 842.9 109.8 842.3 110.6L834.7 117.5 823.5 116.6 840.8 101.2C841.6 100.6 841.6 99.5 840.8 98.9 840.2 98.1 839 98.1 838.5 99L818.6 116.5 795 115.2 808.1 95.1 834.3 89.7C835.1 89.5 835.7 88.7 835.5 87.8 835.3 86.9 834.5 86.4 833.6 86.6L810.6 91.4 816.9 81.7 826.6 79.7C827.5 79.5 828 78.7 827.9 77.8 827.7 76.9 826.9 76.4 826 76.6L819.3 78 824.3 70.5C825 69.9 824.6 68.8 823.8 68.3 823 67.7 822.1 67.9 821.6 68.7L817 75.7 815.6 69C815.4 68.2 814.6 67.6 813.8 67.8S812.3 68.8 812.5 69.7L814.6 79.4 808.2 89.1 803.4 66C803.3 65.2 802.5 64.6 801.6 64.8 800.7 65 800.2 65.8 800.3 66.7L805.8 92.8 792.8 112.6 782.2 91.5 790.2 66.9C790.5 66 789.9 65.2 789.1 64.6 788.1 64.4 787.3 65 786.8 65.8L779.6 87.9 774.4 77.6 777.7 67.9C778 67 777.4 66.2 776.6 65.6 775.6 65.4 774.8 66 774.4 66.5L772.4 73.2 768.5 65.7C768.1 65.1 767 64.4 766.3 65 765.5 65.6 764.9 66.4 765.6 67.2L769.4 74.7 762.8 72.7C761.8 72.4 761 73 760.6 73.6 760.6 74.3 760.7 75.2 761.3 75.5 761.3 75.5 761.5 75.7 761.5 75.7L771.2 79 776.4 89.2 754.3 82.1C753.3 81.8 752.5 82.4 752.2 83 752.1 83.7 752.3 84.6 752.8 84.9 752.8 84.9 753.1 85.1 753.1 85.1L778.4 93.2 789 114.3 765.4 113 747.8 93.1C747.2 92.3 746.1 92.3 745.5 93.1 744.7 93.8 744.7 94.9 745.6 95.4L761 112.8 749.5 112.2 742.6 104.6C742 103.8 740.8 103.8 740.3 104.6 739.5 105.2 739.5 106.4 740.3 106.9L744.9 112.2 736.5 111.7C735.7 111.6 734.8 112.5 734.7 113.2 734.6 113.9 735 114.5 735.5 114.9 735.8 115 736 115.2 736.5 115.1L744.9 115.7 739.6 120.2C738.8 120.9 738.8 122 739.6 122.6 739.6 122.6 739.9 122.7 739.9 122.7 740.4 123.1 741.3 122.9 742 122.5L749.5 115.6 761 116.3 743.6 131.7C742.8 132.3 742.8 133.4 743.6 134 743.6 134 743.9 134.1 743.9 134.1 744.4 134.5 745.3 134.3 745.9 134L765.9 116.4 789.5 117.7 776.5 137.5 750.4 143C749.5 143.2 749 144 749.1 144.8 749.3 145.7 750.1 146.3 751 146.1L773.9 141.5 767.6 151.2 757.8 153.2C756.9 153.4 756.4 154.2 756.6 155.1S757.6 156.5 758.5 156.3L765.1 154.9 760.6 161.9C760 162.7 760.2 163.6 761 164.1 761.8 164.6 762.7 164.4 763.2 163.6L767.8 156.7 769.2 163.3C769.3 163.8 769.4 164.2 769.9 164.6S770.9 164.8 771.3 164.7C772.2 164.5 772.7 163.7 772.5 162.9L770.5 153.1 776.8 143.5 781.6 166.5C781.7 166.9 781.8 167.4 782.3 167.7 782.6 167.9 783.3 168 783.8 167.9 784.7 167.7 785.2 166.9 785 166L779.5 139.9 792.5 120.1 803.2 141.2 795 166.5C794.9 167.2 795.1 168.1 795.7 168.4 795.7 168.4 795.9 168.6 795.9 168.6 796.9 168.9 797.7 168.2 798.1 167.7L805.2 145.6 810.4 155.9 807.1 165.6C807 166.3 807.2 167.2 807.7 167.5 807.7 167.5 808 167.7 808 167.7 809 168 809.8 167.3 810.1 166.8L812.2 160.1 816.1 167.7C816.3 167.8 816.4 168.3 816.7 168.4 817.2 168.8 817.9 168.9 818.6 168.5 819.4 167.9 819.9 167.1 819.3 166.3L815.4 158.8 822 160.9C823 161.1 823.8 160.5 824.2 160 824.4 159 823.8 158.2 823.3 157.8L813.6 154.5 808.4 144.3 830.5 151.5C831.5 151.7 832.3 151.1 832.6 150.6 832.3 149.2 831.9 148.2 830.9 147.9Z" fill="rgba(51, 121, 194, 0.58)"></path><path d="M460.3 322.7L469.8 347.4 467 354.1 450.7 355.9 446.2 349.9 450.5 323.7C450.4 323.4 450.4 323.4 450.4 323.1 450.3 322.4 449.9 321.8 449 321.6 448 321.7 447.4 322.1 447.2 323.1L443.6 346 436.8 336.8 438.2 326.7C438.2 326.7 438.2 326.3 438.2 326.3 438.1 325.7 437.7 325.1 436.8 324.9 436.1 324.6 435.2 325.4 435 326.4L433.8 332.9 428.8 326.1C428.4 325.5 427.5 325.2 426.5 325.7S425.8 327.4 426.2 328.3L431.1 334.8 424.5 333.9C423.5 333.7 422.7 334.5 422.4 335.4 422.5 336.1 422.9 337 423.9 337.2L434.1 338.7 440.9 348.3 418 344.6C417 344.4 416.1 345.2 415.8 345.8 415.9 346.8 416.4 347.7 417.4 347.9L443.5 351.8 448.1 358.1 441.6 372.6 434 373.5 413.2 357.1C412.5 356.5 411.5 356.6 411 357.3S410.5 359 411.2 359.5L429.5 374 417.7 375.2 410 369C409.3 368.4 408.3 368.5 407.4 369.3S407 370.9 407.7 371.5L413.3 375.7 404.7 376.6C403.8 376.7 403.2 377.8 403.3 378.7 403.4 379.7 404.1 380.2 405.1 380.1L413.7 379.2 409.4 384.5C408.5 385.2 408.6 386.2 409.7 386.7 410.4 387.3 411.3 387.2 411.9 386.5L418.1 378.7 429.9 377.5 415.1 395.5C414.5 396.2 414.7 397.4 415.4 398S417.1 398.5 417.6 397.8L434.4 377 442 376.1 451.5 389.3 448.3 396.1 423.6 405.5C422.7 405.9 422.5 406.9 422.6 407.9 423 408.8 424 409 424.9 408.9L446.6 400.4 441.9 410.9 432.3 414.5C431.4 414.9 431.2 415.9 431.3 416.9 431.7 417.5 432.7 418 433.6 417.6L439.8 415.3 436.5 423.1C436.2 423.8 436.6 424.7 437.3 425.2 438.3 425.5 439.2 425 439.5 424.4L442.8 416.6 445.5 423.1C445.9 423.7 446.9 424.2 447.5 423.8 448.4 423.7 448.7 423.1 448.6 422.1 448.6 422.1 448.5 421.8 448.5 421.8L444.9 412.2 449.6 401.7 458 423.3C458.5 424.2 459.2 424.8 460.1 424.4 461 424 461.3 423.3 461.2 422.7 461.2 422.3 461.2 422.3 461.2 422.3L451.4 397.3 454.5 390.6 470.7 388.8 474.9 394.8 471 421.3C470.8 421.9 471.5 422.8 472.2 423.1 473.2 423.3 474.1 422.6 474.3 421.6L477.9 398.6 484.7 407.9 483.2 418C483 419 483.4 419.9 484.4 419.8 485.4 420 486.3 419.3 486.5 418.6L487.4 411.8 492.3 418.6C493 419.2 494 419.4 494.9 419 495.2 418.6 495.5 418 495.4 417.3 495.3 417 495.3 417 495 416.7L490.1 409.9 496.9 410.7C497.9 411 498.5 410.2 498.7 409.6 498.7 409.3 498.7 409.3 498.7 408.9 498.6 408.3 498.2 407.7 497.5 407.5L487.4 406 480.6 396.7 503.5 400.4C504.5 400.3 505.4 399.8 505.3 398.9 505.6 398.5 505.6 398.5 505.5 398.2 505.5 397.6 504.8 397 504.1 396.8L477.6 392.9 473.4 386.9 479.8 372 487.2 371.2 508 388C508.7 388.5 509.9 388.4 510.5 387.7S510.9 385.7 510.2 385.2L491.9 370.7 503.4 369.5 511.5 375.7C512.2 376.3 513.1 376.1 513.7 375.4 514.3 374.7 514.2 373.8 513.4 373.2L508.2 369 516.7 368C517.4 368 518.3 367.2 518.2 366.3 518.1 365.3 517 364.5 516.4 364.5L507.8 365.5 512 360.2C512.3 359.8 512.6 359.5 512.6 359.2 512.5 358.5 512.1 358.2 511.8 357.9 511.1 357.4 510.1 357.5 509.6 358.2L503 366 491.6 367.2 506.3 349.2C506.6 348.9 506.6 348.5 506.5 347.9 506.5 347.6 506.4 347.3 506.1 347 505.4 346.4 504.1 346.5 503.6 347.3L486.8 367.7 479.5 368.5 470 355.7 472.8 348.7 497.8 339.2C498.5 338.8 499 338.1 498.9 337.5 498.9 337.1 498.9 337.1 498.6 337.2 498.5 336.2 497.5 335.7 496.5 336.1L474.9 344.6 479.6 333.8 489.1 330.1C489.7 329.8 490 329.1 489.9 328.5 489.9 328.5 489.9 328.1 489.9 328.1 489.8 327.2 488.8 326.6 487.8 327.1L481.4 329.7 484.7 321.9C485 321.6 485 321.3 484.9 320.9 484.9 320.3 484.5 319.7 484.2 319.7 483.1 319.2 482.2 319.6 481.6 320.3L478.3 328.1 476 321.9C475.6 321 474.6 320.5 473.7 320.9 473.1 321.3 472.5 322.3 472.9 322.9L476.5 332.5 471.9 343 463.4 321.4C463 320.4 462 320.2 461 320.3 460.4 320.7 459.9 321.7 460.3 322.7ZM453 359.2L465.4 357.8 467.3 357.6 468.5 359.1 475.6 368.9 476.8 370.8 476 372.4 471.1 383.6 470.3 385.3 468.4 385.5 456 386.8 454.1 387.1 453 385.6 445.8 375.7 444.7 374.2 445.4 372.2 450.3 361.1 451.1 359.4 453 359.2Z" fill="rgba(51, 121, 194, 0.58)"></path><path d="M373.3 198.8L333.7 195 311.3 167.5 346.3 161.8 378.4 185.4C378.4 185.4 378.9 185.5 378.9 185.5 379.8 185.9 381 185.3 381.8 184.6 382.8 183.4 382.4 181.7 381 181.2L352.9 160.7 369.9 157.9 382.4 166.8C382.4 166.8 382.8 167 382.8 167 383.7 167.3 385 166.8 385.8 166.1 386.7 164.9 386.3 163.2 385 162.7L376.6 156.4 389.1 154.5C390.2 154.4 391.3 152.8 391.2 151.7 391.3 150.2 389.5 149.5 388.4 149.6L375.9 151.5 382.2 143.1C383.1 141.9 382.8 140.3 381.4 139.7 380.2 138.8 378.5 139.2 378 140.5L369.2 153.1 352.3 155.4 372.8 127.2C373.8 126.1 373.4 124.4 372 123.9 370.9 122.9 369.2 123.3 368.7 124.6L345.1 156.8 310.1 162.4 322.9 128.8 359.5 112.4C360.7 111.8 361.2 110.5 360.7 109.3 360.1 108 358.8 107.5 357.5 108.1L325.3 122.5 331.5 106.4 345.1 100.2C346.3 99.7 346.8 98.3 346.3 97.1 345.7 95.9 344.4 95.4 343.1 95.9L333.9 100.1 338.6 87.5C339.6 86.3 338.6 84.9 337.2 84.4 335.9 83.9 334.7 84.5 334.1 85.8L329.7 97.5 325.5 88.2C325 86.9 323.6 86.4 322.4 87S320.6 88.9 321.2 90.1L327.3 103.7 321.2 119.9 306.7 87.7C306.2 86.5 304.8 85.9 303.6 86.5 302.3 87.1 301.8 88.4 302.4 89.6L318.8 126.2 306.1 159.4 283.7 131.8 287.6 93.3C287.7 91.8 286.5 90.8 285.2 90.3 283.7 90.2 282.7 91.4 282.2 92.7L278.8 127.4 267.9 114 269.6 98.7C269.7 97.2 268.5 96.3 267.2 95.8 265.7 95.7 264.7 96.9 264.4 97.8L263.5 108.2 255.4 98.4C254.6 97.7 252.9 97 251.9 98.2 250.9 99.3 250.4 100.7 251.6 101.6L259.7 111.4 249.2 110.5C247.7 110.4 246.8 111.6 246.4 112.5 246.5 113.6 247.1 114.8 248 115.2 248 115.2 248.4 115.3 248.4 115.3L263.7 117 274.5 130.4 239.9 127C238.4 126.9 237.4 128.1 237.1 129 237.2 130 237.7 131.3 238.6 131.6 238.6 131.6 239.1 131.8 239.1 131.8L278.7 135.6 301.1 163.1 266.1 168.8 234 145.3C232.8 144.3 231.1 144.7 230.6 146 229.6 147.2 230 148.9 231.4 149.4L259.5 169.9 242.5 172.7 230 163.8C228.8 162.8 227.1 163.2 226.6 164.5 225.7 165.7 226 167.4 227.4 167.9L235.8 174.2 223.2 176.1C222.2 176.2 221 177.8 221.2 178.9 221.3 180 222 180.8 222.9 181.1 223.3 181.3 223.8 181.4 224.4 181.2L236.9 179.3 230.7 187.7C229.7 188.8 230.1 190.5 231.4 191 231.4 191 231.9 191.2 231.9 191.2 232.8 191.5 234 191 234.8 190.3L243.7 177.7 260.7 174.9 240.2 203.1C239.2 204.3 239.6 206 241 206.5 241 206.5 241.4 206.6 241.4 206.6 242.3 207 243.5 206.4 244.3 205.7L267.9 173.6 302.9 167.9 290.3 201.1 253.7 217.5C252.5 218 252 219.4 252.5 220.6 253.1 221.9 254.4 222.4 255.7 221.8L287.7 207.8 281.6 224 267.9 230.1C266.7 230.6 266.2 232 266.7 233.2S268.6 235 269.9 234.4L279.2 230.3 274.7 241.9C274.2 243.3 274.8 244.5 276.1 245 277.5 245.5 278.7 245 279.2 243.6L283.6 232 287.8 241.3C288.1 241.9 288.4 242.5 289.3 242.8S290.8 242.9 291.4 242.6C292.6 242.1 293.2 240.7 292.6 239.5L286.5 225.9 292.6 209.7 307.1 241.9C307.4 242.5 307.6 243.1 308.5 243.5 309 243.7 310 243.6 310.7 243.3 311.9 242.7 312.4 241.4 311.9 240.1L295.5 203.6 308.1 170.4 330.5 197.9 326.7 237.6C326.8 238.6 327.4 239.9 328.3 240.2 328.3 240.2 328.7 240.4 328.7 240.4 330.2 240.5 331.2 239.3 331.5 238.4L335 203.7 345.8 217.1 344.1 232.4C344.2 233.4 344.8 234.7 345.7 235 345.7 235 346.1 235.2 346.1 235.2 347.6 235.3 348.6 234.1 348.9 233.2L349.8 222.7 357.9 232.5C358.4 232.7 358.6 233.3 359.1 233.5 360 233.8 361.1 233.7 361.8 233 362.8 231.8 363.3 230.4 362.1 229.5L354 219.7 364.5 220.6C366 220.7 367 219.5 367.3 218.6 367.4 217.1 366.2 216.1 365.3 215.8L350 214.1 339.2 200.7 373.8 204.1C375.4 204.2 376.3 203 376.7 202.1 375.8 200.3 374.8 198.9 373.3 198.8Z" fill="rgba(51, 121, 194, 0.58)"></path><path d="M1047.8 122.2L1058.3 97.8 1080.3 89.2 1076.8 112.6 1055.4 128.2C1055.4 128.2 1055.2 128.5 1055.2 128.5 1054.8 129 1054.9 129.9 1055.2 130.5 1055.7 131.4 1056.9 131.5 1057.5 130.7L1076.2 117 1074.5 128.3 1066.3 134.5C1066.3 134.5 1066.1 134.7 1066.1 134.7 1065.7 135.2 1065.8 136.1 1066.1 136.8 1066.7 137.6 1067.8 137.7 1068.4 137L1074.1 132.9 1072.8 141.3C1072.6 142 1073.4 143 1074.1 143.2 1075.1 143.5 1075.9 142.5 1076 141.8L1077.3 133.5 1081.4 139.2C1082 140 1083.1 140.1 1083.7 139.4 1084.6 138.8 1084.7 137.7 1083.9 137.1L1077.7 128.9 1079.7 117.7 1093.4 136.4C1093.9 137.3 1095.1 137.4 1095.7 136.6 1096.5 136.1 1096.6 134.9 1095.9 134.3L1080.3 112.9 1083.8 89.5 1102.5 104.4 1105.5 131C1105.6 131.9 1106.4 132.5 1107.3 132.4 1108.2 132.3 1108.8 131.5 1108.7 130.6L1106 107.2 1115 114.4 1116.2 124.3C1116.3 125.2 1117 125.8 1117.9 125.7 1118.8 125.6 1119.4 124.9 1119.3 124L1118.5 117.2 1125.6 122.8C1126.1 123.6 1127.2 123.3 1127.8 122.5 1128.4 121.8 1128.3 120.9 1127.5 120.3L1121 115.1 1127.8 114.3C1128.7 114.2 1129.3 113.5 1129.2 112.6S1128.3 111.1 1127.4 111.2L1117.5 112.3 1108.5 105.1 1131.9 102.5C1132.8 102.4 1133.4 101.6 1133.3 100.7 1133.2 99.8 1132.5 99.2 1131.6 99.3L1105 102.3 1086.5 87.6 1108.5 78.9 1132.2 89.2C1133.2 89.6 1134 89 1134.6 88.3 1135 87.3 1134.4 86.5 1133.7 85.9L1112.4 76.7 1123.1 72.5 1132.4 76.7C1133.4 77 1134.2 76.5 1134.8 75.7 1135.2 74.8 1134.6 73.9 1134.1 73.5L1127.7 70.9 1135.5 67.7C1136.1 67.4 1136.9 66.4 1136.4 65.5 1135.8 64.7 1135.1 64.1 1134.2 64.7L1126.4 67.8 1129.1 61.4C1129.4 60.4 1128.9 59.6 1128.4 59.2 1127.7 59 1126.8 59.1 1126.4 59.6 1126.4 59.6 1126.2 59.9 1126.2 59.9L1122 69.2 1111.3 73.4 1120.5 52.1C1120.9 51.1 1120.3 50.3 1119.8 49.9 1119.1 49.7 1118.2 49.8 1117.8 50.3 1117.8 50.3 1117.6 50.6 1117.6 50.6L1107.2 75 1085.2 83.6 1088.7 60.2 1110.1 44.6C1111 44.1 1111.1 42.9 1110.3 42.3 1109.8 41.5 1108.6 41.4 1108 42.1L1089.3 55.8 1091 44.5 1099.2 38.3C1100 37.8 1100.1 36.6 1099.4 36 1098.8 35.2 1097.7 35.1 1097.1 35.8L1091.4 39.9 1092.7 31.5C1092.8 30.8 1092 29.8 1091.3 29.7 1090.6 29.5 1090 29.8 1089.6 30.3 1089.4 30.6 1089.2 30.8 1089.2 31.3L1087.9 39.6 1083.9 33.9C1083.3 33.1 1082.2 33 1081.6 33.7 1081.6 33.7 1081.4 34 1081.4 34 1081 34.5 1081.1 35.4 1081.4 36L1087.5 44.2 1085.8 55.5 1072.1 36.8C1071.6 36 1070.4 35.9 1069.8 36.6 1069.8 36.6 1069.6 36.9 1069.6 36.9 1069.2 37.4 1069.3 38.3 1069.6 38.9L1085.3 60.4 1081.8 83.8 1063.2 69 1060.2 42.5C1060.1 41.6 1059.4 41 1058.5 41.1 1057.6 41.2 1057 42 1057.1 42.9L1059.5 66 1050.5 58.9 1049.4 49C1049.2 48.1 1048.5 47.5 1047.6 47.6S1046.1 48.4 1046.2 49.3L1047 56.1 1040.5 50.9C1039.7 50.3 1038.8 50.4 1038.2 51.1 1037.6 51.9 1037.7 52.8 1038.5 53.4L1045 58.6 1038.2 59.3C1037.8 59.4 1037.3 59.4 1036.9 59.9S1036.6 60.9 1036.6 61.3C1036.7 62.2 1037.5 62.8 1038.4 62.7L1048.3 61.6 1057.3 68.8 1033.9 71.4C1033.5 71.5 1033 71.5 1032.6 72 1032.4 72.3 1032.3 73 1032.3 73.4 1032.4 74.3 1033.2 74.9 1034.1 74.8L1060.6 71.8 1079.1 86.6 1057.1 95.2 1032.7 84.8C1032 84.6 1031.1 84.7 1030.7 85.2 1030.7 85.2 1030.5 85.5 1030.5 85.5 1030.1 86.4 1030.7 87.3 1031.2 87.7L1052.5 96.9 1041.8 101.1 1032.5 96.9C1031.8 96.7 1030.9 96.8 1030.5 97.3 1030.5 97.3 1030.3 97.6 1030.3 97.6 1029.9 98.5 1030.5 99.4 1031 99.8L1037.4 102.5 1029.6 105.6C1029.4 105.9 1028.9 105.9 1028.7 106.2 1028.3 106.7 1028.2 107.4 1028.5 108 1029 108.9 1029.8 109.5 1030.6 108.9L1038.5 105.8 1035.8 112.2C1035.4 113.2 1036 114 1036.5 114.4 1037.4 114.8 1038.3 114.2 1038.7 113.7L1042.9 104.4 1053.5 100.2 1044.3 121.5C1044 122.4 1044.5 123.3 1045 123.7 1046.4 123.5 1047.5 123.2 1047.8 122.2Z" fill="rgba(51, 121, 194, 0.58)"></path></g><defs><mask id="SvgjsMask1010"><rect width="1440" height="560" fill="#ffffff"></rect></mask><linearGradient x1="15.28%" y1="-39.29%" x2="84.72%" y2="139.29%" gradientUnits="userSpaceOnUse" id="SvgjsLinearGradient1011"><stop stop-color="#0e2a47" offset="0"></stop><stop stop-color="rgba(21, 67, 96, 1)" offset="1"></stop></linearGradient><filter id="SvgjsFilter1012"><feGaussianBlur stdDeviation="1"></feGaussianBlur></filter></defs></svg>